<?xml version="1.0" encoding="UTF-8"?>
<svg xmlns="http://www.w3.org/2000/svg" xmlns:xlink="http://www.w3.org/1999/xlink" width="24px" height="24px" viewBox="0 0 24 24" version="1.1">
<g id="surface1">
<path style=" stroke:none;fill-rule:nonzero;fill:rgb(100%,100%,100%);fill-opacity:1;" d="M 22.953125 15.671875 L 15.847656 3.136719 C 15.425781 2.386719 14.625 1.921875 13.761719 1.921875 L 9.601562 1.921875 C 9.429688 1.921875 9.269531 2.011719 9.183594 2.160156 C 9.097656 2.308594 9.097656 2.492188 9.183594 2.640625 L 20.222656 21.839844 C 20.308594 21.988281 20.46875 22.078125 20.640625 22.078125 C 20.644531 22.078125 20.648438 22.078125 20.652344 22.078125 C 20.832031 22.074219 20.988281 21.972656 21.070312 21.816406 L 23.011719 17.929688 C 23.371094 17.214844 23.347656 16.371094 22.953125 15.671875 Z M 22.953125 15.671875 "/>
<path style=" stroke:none;fill-rule:nonzero;fill:rgb(100%,100%,100%);fill-opacity:1;" d="M 13.363281 13.660156 L 8.082031 5.5 C 7.996094 5.363281 7.84375 5.28125 7.679688 5.28125 C 7.675781 5.28125 7.671875 5.28125 7.667969 5.28125 C 7.503906 5.285156 7.351562 5.375 7.265625 5.515625 L 2.464844 13.675781 C 2.378906 13.824219 2.378906 14.007812 2.464844 14.15625 C 2.546875 14.308594 2.707031 14.398438 2.878906 14.398438 L 12.960938 14.398438 C 13.136719 14.398438 13.296875 14.304688 13.382812 14.148438 C 13.464844 13.996094 13.457031 13.808594 13.363281 13.660156 Z M 13.363281 13.660156 "/>
<path style=" stroke:none;fill-rule:nonzero;fill:rgb(100%,100%,100%);fill-opacity:1;" d="M 17.699219 21.367188 L 15.300781 17.046875 C 15.214844 16.894531 15.054688 16.800781 14.878906 16.800781 L 1.441406 16.800781 C 1.269531 16.800781 1.113281 16.890625 1.027344 17.035156 C 0.941406 17.183594 0.9375 17.363281 1.019531 17.511719 L 3.421875 21.832031 C 3.503906 21.984375 3.664062 22.078125 3.839844 22.078125 L 17.28125 22.078125 C 17.449219 22.078125 17.609375 21.988281 17.695312 21.84375 C 17.78125 21.695312 17.78125 21.515625 17.699219 21.367188 Z M 17.699219 21.367188 "/>
</g>
</svg>
