<?xml version="1.0" encoding="UTF-8"?>
<svg xmlns="http://www.w3.org/2000/svg" xmlns:xlink="http://www.w3.org/1999/xlink" width="24px" height="24px" viewBox="0 0 24 24" version="1.1">
<g id="surface1">
<path style=" stroke:none;fill-rule:evenodd;fill:rgb(100%,100%,100%);fill-opacity:1;" d="M 19.632812 0 L 5.042969 0 C 2.457031 0 0 2.03125 0 4.617188 L 0 19.210938 C 0 21.796875 2.457031 24 5.042969 24 L 19.636719 24 C 22.222656 24 24 21.796875 24 19.210938 L 24 4.617188 C 24 2.03125 22.222656 0 19.632812 0 Z M 18.75 13.851562 C 20.0625 15.070312 20.335938 15.667969 20.378906 15.738281 C 20.925781 16.644531 19.777344 16.710938 19.777344 16.710938 L 17.585938 16.746094 C 17.585938 16.746094 17.113281 16.839844 16.492188 16.410156 C 15.671875 15.851562 14.898438 14.386719 14.292969 14.574219 C 13.683594 14.769531 13.703125 16.089844 13.703125 16.089844 C 13.703125 16.089844 13.707031 16.320312 13.570312 16.472656 C 13.417969 16.628906 13.121094 16.617188 13.121094 16.617188 L 12.136719 16.617188 C 12.136719 16.617188 9.96875 16.796875 8.0625 14.808594 C 5.980469 12.640625 4.148438 8.367188 4.148438 8.367188 C 4.148438 8.367188 4.042969 8.097656 4.152344 7.960938 C 4.285156 7.808594 4.636719 7.804688 4.636719 7.804688 L 6.984375 7.792969 C 6.984375 7.792969 7.203125 7.832031 7.363281 7.945312 C 7.492188 8.039062 7.570312 8.222656 7.570312 8.222656 C 7.570312 8.222656 7.945312 9.183594 8.449219 10.050781 C 9.429688 11.742188 9.886719 12.117188 10.21875 11.933594 C 10.707031 11.667969 10.558594 9.539062 10.558594 9.539062 C 10.558594 9.539062 10.570312 8.765625 10.3125 8.417969 C 10.117188 8.15625 9.75 8.078125 9.585938 8.054688 C 9.449219 8.039062 9.671875 7.730469 9.953125 7.59375 C 10.375 7.386719 11.121094 7.375 12 7.382812 C 12.683594 7.390625 12.882812 7.433594 13.148438 7.5 C 13.960938 7.695312 13.6875 8.449219 13.6875 10.257812 C 13.6875 10.839844 13.582031 11.652344 14 11.925781 C 14.179688 12.039062 14.621094 11.941406 15.71875 10.074219 C 16.242188 9.1875 16.628906 8.148438 16.628906 8.148438 C 16.628906 8.148438 16.714844 7.960938 16.851562 7.882812 C 16.988281 7.804688 17.171875 7.828125 17.171875 7.828125 L 19.640625 7.808594 C 19.640625 7.808594 20.378906 7.722656 20.503906 8.058594 C 20.628906 8.410156 20.226562 9.230469 19.214844 10.574219 C 17.554688 12.78125 17.371094 12.578125 18.75 13.851562 Z M 18.75 13.851562 "/>
</g>
</svg>
